<svg viewBox="0 0 512 512" xml:space="preserve" xmlns="http://www.w3.org/2000/svg"><path d="M170.476 166.19h155.097c4.285 0 7.76-3.469 7.76-7.754s-3.475-7.765-7.76-7.765H170.476c-4.285 0-7.754 3.48-7.754 7.765s3.469 7.754 7.754 7.754zM348.088 203.362H202.74c-4.284 0-7.759 3.469-7.759 7.754s3.475 7.765 7.759 7.765h145.348c4.284 0 7.754-3.48 7.754-7.765s-3.47-7.754-7.754-7.754zM306.695 256.052H170.476a7.75 7.75 0 0 0-7.754 7.754 7.751 7.751 0 0 0 7.754 7.754h136.219a7.755 7.755 0 0 0 0-15.508z" fill="#aaaaaa" class="fill-000000"></path><path d="M396.776 86.288H115.225c-29.992 0-54.403 22.562-54.403 50.308v154.83c0 27.735 24.411 50.297 54.403 50.297h166.034l119.812 83.989v-84.135c27.996-2.038 50.108-23.753 50.108-50.151v-154.83c0-27.746-24.411-50.308-54.403-50.308zm31.13 205.138c0 14.902-13.972 27.025-31.131 27.025h-18.978v62.523l-89.193-62.523h-173.38c-17.164 0-31.131-12.123-31.131-27.025v-154.83c0-14.913 13.967-27.035 31.131-27.035h281.551c17.159 0 31.131 12.123 31.131 27.035v154.83z" fill="#aaaaaa" class="fill-000000"></path></svg>